# xmcd
#
# Track frame offsets: 
#        150
#        28145
#        38938
#        53313
#        67795
#        86228
#        102743
#        109478
#        126633
#        141653
#        162841
#        180768
#        192951
#        203731
#        216026
#
# Disc length: 3104 seconds
#
# Revision: 0
# Processed by: cddbd v1.5.2PL0 Copyright (c) Steve Scherf et al.
# Submitted via: ExactAudioCopy v0.99pb5
#
DISCID=dd0c1e0f
DTITLE=Johnny Cash and Willie Nelson - VH1 Storrytellers
DYEAR=1998
DGENRE=Country
TTITLE0=(Ghost) Riders In The Sky
TTITLE1=Worried Man
TTITLE2=Family Bible
TTITLE3=Don´t Take Your Guns To Town
TTITLE4=Funny How Time Slips Away
TTITLE5=Flesh And Blood
TTITLE6=Crazy
TTITLE7=Unchained
TTITLE8=Night Life
TTITLE9=Drive On
TTITLE10=Me And Paul
TTITLE11=I Still Miss Someone
TTITLE12=Always On My Mind
TTITLE13=Folsom Prison Blues
TTITLE14=On The Road Again
EXTD=
EXTT0=
EXTT1=
EXTT2=
EXTT3=
EXTT4=
EXTT5=
EXTT6=
EXTT7=
EXTT8=
EXTT9=
EXTT10=
EXTT11=
EXTT12=
EXTT13=
EXTT14=
PLAYORDER=
